<svg width="30" height="31" viewBox="0 0 30 31" fill="none" xmlns="http://www.w3.org/2000/svg">
<path d="M18.0498 23.906L19.9498 25.8134L23.7498 21.9985" stroke="#787880" stroke-width="1.875" stroke-linecap="round" stroke-linejoin="round"/>
<path d="M15.2016 13.6406C15.0766 13.6281 14.9266 13.6281 14.7891 13.6406C11.8141 13.5402 9.45158 11.0932 9.45158 8.0814C9.43908 5.0069 11.9266 2.50964 14.9891 2.50964C18.0516 2.50964 20.5391 5.0069 20.5391 8.0814C20.5391 11.0932 18.1641 13.5402 15.2016 13.6406Z" stroke="#787880" stroke-width="1.875" stroke-linecap="round" stroke-linejoin="round"/>
<path d="M14.9882 27.3689C12.7132 27.3689 10.4507 26.7916 8.72572 25.6371C5.70072 23.6042 5.70072 20.2912 8.72572 18.2708C12.1632 15.9618 17.8007 15.9618 21.2382 18.2708" stroke="#787880" stroke-width="1.875" stroke-linecap="round" stroke-linejoin="round"/>
</svg>
