<svg width="30" height="31" viewBox="0 0 30 31" fill="none" xmlns="http://www.w3.org/2000/svg">
<path d="M11.4499 13.7588C11.3249 13.7462 11.1749 13.7462 11.0374 13.7588C8.06239 13.6584 5.69989 11.2113 5.69989 8.19957C5.69989 5.12506 8.17489 2.62781 11.2499 2.62781C14.3124 2.62781 16.7999 5.12506 16.7999 8.19957C16.7874 11.2113 14.4249 13.6584 11.4499 13.7588Z" stroke="#787880" stroke-width="1.875" stroke-linecap="round" stroke-linejoin="round"/>
<path d="M20.5124 5.13672C22.9374 5.13672 24.8874 7.10692 24.8874 9.52888C24.8874 11.9006 23.0124 13.8332 20.6749 13.921C20.5749 13.9085 20.4624 13.9085 20.3499 13.921" stroke="#787880" stroke-width="1.875" stroke-linecap="round" stroke-linejoin="round"/>
<path d="M5.20033 18.3882C2.17533 20.4212 2.17533 23.7341 5.20033 25.7545C8.63783 28.0635 14.2753 28.0635 17.7128 25.7545C20.7378 23.7216 20.7378 20.4086 17.7128 18.3882C14.2878 16.0918 8.65033 16.0918 5.20033 18.3882Z" stroke="#787880" stroke-width="1.875" stroke-linecap="round" stroke-linejoin="round"/>
<path d="M22.9246 25.2162C23.8246 25.0279 24.6746 24.664 25.3746 24.1244C27.3246 22.6562 27.3246 20.2342 25.3746 18.766C24.6871 18.2389 23.8496 17.8876 22.9621 17.6868" stroke="#787880" stroke-width="1.875" stroke-linecap="round" stroke-linejoin="round"/>
</svg>
