<svg width="11" height="13" viewBox="0 0 11 13" fill="none" xmlns="http://www.w3.org/2000/svg">
<path d="M9.51623 1.54988H8.92904V0.375488H7.75464V1.54988H3.05707V0.375488H1.88268V1.54988H1.29549C0.643698 1.54988 0.126966 2.07836 0.126966 2.72427L0.121094 10.945C0.121094 11.2565 0.244824 11.5552 0.465065 11.7754C0.685306 11.9957 0.984018 12.1194 1.29549 12.1194H9.51623C10.1621 12.1194 10.6906 11.5909 10.6906 10.945V2.72427C10.6906 2.07836 10.1621 1.54988 9.51623 1.54988ZM9.51623 10.945H1.29549V5.07306H9.51623V10.945ZM9.51623 3.89867H1.29549V2.72427H9.51623V3.89867ZM3.64427 7.42184H2.46988V6.24745H3.64427V7.42184ZM5.99305 7.42184H4.81866V6.24745H5.99305V7.42184ZM8.34184 7.42184H7.16745V6.24745H8.34184V7.42184ZM3.64427 9.77063H2.46988V8.59623H3.64427V9.77063ZM5.99305 9.77063H4.81866V8.59623H5.99305V9.77063ZM8.34184 9.77063H7.16745V8.59623H8.34184V9.77063Z" fill="white"/>
</svg>
