<svg width="32" height="32" viewBox="0 0 32 32" fill="none" xmlns="http://www.w3.org/2000/svg">
<path opacity="0.2" d="M21.588 2.6665H10.4146C5.5613 2.6665 2.66797 5.55984 2.66797 10.4132V21.5732C2.66797 26.4398 5.5613 29.3332 10.4146 29.3332H21.5746C26.428 29.3332 29.3213 26.4398 29.3213 21.5865V10.4132C29.3346 5.55984 26.4413 2.6665 21.588 2.6665Z" fill="#787486"/>
<path d="M19.6965 11.286L16.4711 14.5114L13.2457 11.286C12.8388 10.8791 12.1639 10.8791 11.757 11.286C11.3501 11.6929 11.3501 12.3677 11.757 12.7746L14.9824 16L11.757 19.2254C11.3501 19.6323 11.3501 20.3071 11.757 20.714C12.1639 21.1209 12.8388 21.1209 13.2457 20.714L16.4711 17.4886L19.6965 20.714C20.1034 21.1209 20.7782 21.1209 21.1851 20.714C21.592 20.3071 21.592 19.6323 21.1851 19.2254L17.9597 16L21.1851 12.7746C21.592 12.3677 21.592 11.6929 21.1851 11.286C20.7782 10.8791 20.1034 10.8791 19.6965 11.286Z" fill="#0D062D"/>
</svg>
