<svg width="16" height="16" viewBox="0 0 16 16" fill="none" xmlns="http://www.w3.org/2000/svg">
  <path d="M8.9398 8.00012L13.1398 3.80679C13.2653 3.68125 13.3359 3.51099 13.3359 3.33346C13.3359 3.15592 13.2653 2.98566 13.1398 2.86012C13.0143 2.73459 12.844 2.66406 12.6665 2.66406C12.4889 2.66406 12.3187 2.73459 12.1931 2.86012L7.9998 7.06012L3.80646 2.86012C3.68093 2.73459 3.51066 2.66406 3.33313 2.66406C3.1556 2.66406 2.98533 2.73459 2.8598 2.86012C2.73426 2.98566 2.66374 3.15592 2.66374 3.33346C2.66374 3.51099 2.73426 3.68125 2.8598 3.80679L7.0598 8.00012L2.8598 12.1935C2.79731 12.2554 2.74771 12.3292 2.71387 12.4104C2.68002 12.4916 2.6626 12.5788 2.6626 12.6668C2.6626 12.7548 2.68002 12.8419 2.71387 12.9232C2.74771 13.0044 2.79731 13.0781 2.8598 13.1401C2.92177 13.2026 2.99551 13.2522 3.07675 13.2861C3.15798 13.3199 3.24512 13.3373 3.33313 13.3373C3.42114 13.3373 3.50827 13.3199 3.58951 13.2861C3.67075 13.2522 3.74449 13.2026 3.80646 13.1401L7.9998 8.94012L12.1931 13.1401C12.2551 13.2026 12.3288 13.2522 12.4101 13.2861C12.4913 13.3199 12.5785 13.3373 12.6665 13.3373C12.7545 13.3373 12.8416 13.3199 12.9228 13.2861C13.0041 13.2522 13.0778 13.2026 13.1398 13.1401C13.2023 13.0781 13.2519 13.0044 13.2857 12.9232C13.3196 12.8419 13.337 12.7548 13.337 12.6668C13.337 12.5788 13.3196 12.4916 13.2857 12.4104C13.2519 12.3292 13.2023 12.2554 13.1398 12.1935L8.9398 8.00012Z" fill="#828282"/>
</svg>