<svg width="24" height="24" viewBox="0 0 24 24" fill="none" xmlns="http://www.w3.org/2000/svg">
<path d="M5.14286 20.067C5.14286 21.3381 6.17143 22.3781 7.42857 22.3781H16.5714C17.8286 22.3781 18.8571 21.3381 18.8571 20.067V8.51146C18.8571 7.24035 17.8286 6.20035 16.5714 6.20035H7.42857C6.17143 6.20035 5.14286 7.24035 5.14286 8.51146V20.067ZM8.57143 8.51146H15.4286C16.0571 8.51146 16.5714 9.03146 16.5714 9.66701V18.9115C16.5714 19.547 16.0571 20.067 15.4286 20.067H8.57143C7.94286 20.067 7.42857 19.547 7.42857 18.9115V9.66701C7.42857 9.03146 7.94286 8.51146 8.57143 8.51146ZM16 2.73368L15.1886 1.91324C14.9829 1.70524 14.6857 1.57812 14.3886 1.57812H9.61143C9.31429 1.57812 9.01714 1.70524 8.81143 1.91324L8 2.73368H5.14286C4.51429 2.73368 4 3.25368 4 3.88924C4 4.52479 4.51429 5.04479 5.14286 5.04479H18.8571C19.4857 5.04479 20 4.52479 20 3.88924C20 3.25368 19.4857 2.73368 18.8571 2.73368H16Z" fill="#F03D3E"/>
</svg>
