<svg width="30" height="31" viewBox="0 0 30 31" fill="none" xmlns="http://www.w3.org/2000/svg">
<path d="M15.366 4.54529C15.2538 4.54509 15.143 4.57005 15.0418 4.61834C14.9405 4.66662 14.8514 4.737 14.781 4.82429L14.6475 4.92329C12.06 4.12229 9.10797 4.71029 7.05297 6.69029C6.1924 7.50687 5.55221 8.52772 5.19188 9.65801C4.83156 10.7883 4.76279 11.9913 4.99197 13.1553C4.96649 13.1778 4.94149 13.2008 4.91697 13.2243L3.74847 14.3493C3.52243 14.5637 3.34242 14.8219 3.21941 15.1082C3.0964 15.3944 3.03296 15.7027 3.03296 16.0143C3.03296 16.3259 3.0964 16.6342 3.21941 16.9204C3.34242 17.2067 3.52243 17.4649 3.74847 17.6793C4.34547 18.2553 5.17347 18.4713 5.94297 18.3273C6.03747 18.7608 6.25797 19.1733 6.60747 19.5093C7.06797 19.9533 7.66647 20.1828 8.26947 20.1993C8.28597 20.7798 8.52447 21.3558 8.98496 21.7998C9.44547 22.2438 10.0455 22.4748 10.6485 22.4898C10.6635 23.0703 10.9035 23.6478 11.364 24.0918C11.8048 24.5102 12.3823 24.7547 12.9896 24.7801C13.5969 24.8054 14.1927 24.6099 14.667 24.2298L15.3225 24.8598C16.2825 25.7853 17.8395 25.7853 18.7995 24.8598C19.2585 24.4188 19.497 23.8458 19.518 23.2668C20.1345 23.2509 20.723 23.0054 21.168 22.5783C21.627 22.1358 21.8655 21.5628 21.8835 20.9838C22.4931 20.9624 23.0735 20.7173 23.514 20.2953C23.8785 19.9458 24.1035 19.5123 24.1905 19.0593C24.5766 19.127 24.9732 19.1031 25.3483 18.9895C25.7235 18.8759 26.0668 18.6758 26.3505 18.4053C26.5767 18.1908 26.7569 17.9325 26.8801 17.6462C27.0033 17.3598 27.0668 17.0513 27.0668 16.7395C27.0668 16.4278 27.0033 16.1193 26.8801 15.8329C26.7569 15.5465 26.5767 15.2882 26.3505 15.0738L25.2705 14.0343L25.491 13.2093C25.937 11.5227 25.7112 9.72874 24.861 8.20529C23.607 5.94629 21.174 4.55129 18.543 4.55129H16.698C16.6185 4.54735 16.539 4.54535 16.4595 4.54529H15.366ZM19.0455 10.1193L22.653 13.5948L22.6575 13.5978L25.269 16.1148C25.3538 16.1952 25.4214 16.2921 25.4675 16.3995C25.5137 16.5069 25.5375 16.6226 25.5375 16.7395C25.5375 16.8565 25.5137 16.9721 25.4675 17.0796C25.4214 17.187 25.3538 17.2838 25.269 17.3643C25.0937 17.5302 24.8616 17.6227 24.6202 17.6227C24.3789 17.6227 24.1467 17.5302 23.9715 17.3643L21.99 15.4563C21.8447 15.3169 21.6512 15.2391 21.45 15.2391C21.2487 15.2391 21.0552 15.3169 20.91 15.4563L20.889 15.4743C20.8182 15.5413 20.7619 15.622 20.7234 15.7115C20.6849 15.801 20.6651 15.8974 20.6651 15.9948C20.6651 16.0922 20.6849 16.1886 20.7234 16.2781C20.7619 16.3676 20.8182 16.4483 20.889 16.5153L22.434 18.0033C22.794 18.3483 22.794 18.9093 22.434 19.2558C22.2746 19.4068 22.0678 19.4976 21.8488 19.5126C21.6298 19.5277 21.4124 19.466 21.234 19.3383C21.085 19.2307 20.9031 19.1786 20.7197 19.1912C20.5364 19.2039 20.3633 19.2803 20.2305 19.4073C20.1007 19.5314 20.0223 19.6998 20.0109 19.879C19.9995 20.0583 20.0559 20.2352 20.169 20.3748C20.3036 20.5435 20.37 20.7565 20.355 20.9718C20.34 21.1871 20.2447 21.3889 20.088 21.5373C19.9264 21.6905 19.7159 21.7818 19.4936 21.7949C19.2713 21.8081 19.0515 21.7424 18.873 21.6093C18.7248 21.4981 18.542 21.4429 18.3571 21.4533C18.1721 21.4637 17.9967 21.5392 17.862 21.6663C17.7305 21.7902 17.6507 21.9593 17.6388 22.1396C17.6268 22.3199 17.6835 22.4981 17.7975 22.6383C17.9353 22.8092 18.0036 23.0258 17.9889 23.2448C17.9742 23.4639 17.8774 23.6694 17.718 23.8203C17.5404 23.9888 17.305 24.0827 17.0602 24.0827C16.8154 24.0827 16.58 23.9888 16.4025 23.8203L15.753 23.1948L15.99 22.9668C16.2162 22.7523 16.3964 22.494 16.5196 22.2077C16.6427 21.9213 16.7063 21.6128 16.7063 21.301C16.7063 20.9893 16.6427 20.6808 16.5196 20.3944C16.3964 20.108 16.2162 19.8497 15.99 19.6353C15.5417 19.2056 14.9487 18.9595 14.328 18.9453C14.3098 18.3379 14.0526 17.7622 13.6125 17.3433C13.1636 16.9138 12.5701 16.6682 11.949 16.6548C11.9308 16.0474 11.6736 15.4717 11.2335 15.0528C10.9453 14.7785 10.5959 14.5768 10.2143 14.4644C9.83271 14.352 9.42981 14.332 9.03897 14.4063C8.94009 13.9549 8.70871 13.5433 8.37447 13.2243C8.11824 12.9798 7.81291 12.7926 7.47877 12.6752C7.14463 12.5578 6.78932 12.5128 6.43647 12.5433C6.31829 11.6643 6.41031 10.7698 6.70497 9.93334C6.99962 9.09684 7.4885 8.34216 8.13147 7.73129C8.78117 7.11057 9.56016 6.64128 10.4126 6.35706C11.265 6.07283 12.1698 5.9807 13.062 6.08729L10.8795 7.69229C10.6002 7.89519 10.365 8.15259 10.188 8.44893C10.011 8.74527 9.89588 9.07441 9.84961 9.41648C9.80335 9.75854 9.82689 10.1064 9.91882 10.4392C10.0107 10.7719 10.1691 11.0825 10.3845 11.3523C10.8199 11.8983 11.4491 12.2554 12.1412 12.3492C12.8332 12.4431 13.5348 12.2666 14.1 11.8563L16.464 10.1208H19.044L19.0455 10.1193ZM11.7675 8.89979L15.6555 6.04529H16.4595C16.533 6.0449 16.6066 6.0469 16.68 6.05129H18.543C20.649 6.05129 22.5705 7.16879 23.55 8.93429C24.213 10.1283 24.387 11.5158 24.0405 12.8253L24.036 12.8403L19.896 8.83979C19.7557 8.69904 19.5652 8.61973 19.3665 8.61929H16.2165C16.0573 8.6196 15.9023 8.67055 15.774 8.76479L13.212 10.6458C12.9603 10.826 12.6493 10.9032 12.3426 10.8617C12.0359 10.8201 11.7566 10.6629 11.562 10.4223C11.4713 10.3106 11.4044 10.1814 11.3655 10.0429C11.3265 9.90431 11.3164 9.75925 11.3356 9.61662C11.3549 9.47399 11.4031 9.33681 11.4774 9.21353C11.5517 9.09025 11.6504 8.98348 11.7675 8.89979ZM12.4305 21.8148L12.4455 21.7998L13.6125 20.6748L13.626 20.6628C13.8022 20.5026 14.0325 20.4149 14.2706 20.4174C14.5088 20.4199 14.7372 20.5124 14.91 20.6763C14.9948 20.7567 15.0624 20.8536 15.1085 20.961C15.1547 21.0684 15.1785 21.1841 15.1785 21.301C15.1785 21.418 15.1547 21.5336 15.1085 21.6411C15.0624 21.7485 14.9948 21.8453 14.91 21.9258L13.7415 23.0508C13.5662 23.2167 13.3341 23.3092 13.0927 23.3092C12.8514 23.3092 12.6192 23.2167 12.444 23.0508C12.3602 22.9715 12.2933 22.8763 12.2471 22.7707C12.2009 22.6651 12.1763 22.5512 12.1749 22.436C12.1735 22.3207 12.1953 22.2063 12.2389 22.0996C12.2826 21.9929 12.3487 21.896 12.4305 21.8148ZM12.546 19.6218L12.531 19.6353L11.364 20.7603L11.349 20.7738C11.1727 20.9334 10.9426 21.0205 10.7048 21.0177C10.467 21.0149 10.239 20.9225 10.0665 20.7588C9.98258 20.6792 9.91559 20.5835 9.86949 20.4775C9.82339 20.3714 9.79913 20.2572 9.79815 20.1415C9.79717 20.0259 9.81949 19.9112 9.86379 19.8044C9.90808 19.6976 9.97344 19.6008 10.056 19.5198L10.0665 19.5093L11.2335 18.3843L11.244 18.3738C11.42 18.2123 11.6507 18.1236 11.8895 18.1255C12.1284 18.1275 12.3576 18.22 12.531 18.3843C12.6149 18.4636 12.6821 18.5589 12.7284 18.6647C12.7748 18.7704 12.7994 18.8844 12.8008 18.9999C12.8022 19.1153 12.7803 19.2299 12.7366 19.3367C12.6928 19.4436 12.628 19.5405 12.546 19.6218ZM10.1535 17.3433L8.98496 18.4683L8.97446 18.4788C8.79846 18.6403 8.56775 18.729 8.3289 18.7271C8.09004 18.7251 7.86081 18.6326 7.68747 18.4683C7.60263 18.3878 7.53507 18.291 7.4889 18.1835C7.44274 18.0761 7.41892 17.9605 7.41892 17.8435C7.41892 17.7266 7.44274 17.6109 7.4889 17.5035C7.53507 17.3961 7.60263 17.2992 7.68747 17.2188L8.85447 16.0938C9.02978 15.9274 9.26226 15.8346 9.50396 15.8346C9.74567 15.8346 9.97815 15.9274 10.1535 16.0938C10.2376 16.1734 10.3048 16.2692 10.351 16.3754C10.3972 16.4816 10.4216 16.596 10.4226 16.7118C10.4235 16.8276 10.4011 16.9424 10.3567 17.0494C10.3123 17.1564 10.2467 17.2533 10.164 17.3343L10.1535 17.3433ZM7.29447 15.5148L6.12747 16.6398C5.95232 16.8065 5.71977 16.8995 5.47797 16.8995C5.23616 16.8995 5.00361 16.8065 4.82847 16.6398C4.7434 16.5593 4.67564 16.4623 4.62933 16.3548C4.58302 16.2473 4.55913 16.1314 4.55913 16.0143C4.55913 15.8972 4.58302 15.7813 4.62933 15.6738C4.67564 15.5662 4.7434 15.4693 4.82847 15.3888L5.99697 14.2638C6.1722 14.0978 6.40437 14.0054 6.64572 14.0054C6.88706 14.0054 7.11923 14.0978 7.29447 14.2638C7.37953 14.3443 7.44729 14.4412 7.4936 14.5488C7.53991 14.6563 7.5638 14.7722 7.5638 14.8893C7.5638 15.0064 7.53991 15.1223 7.4936 15.2298C7.44729 15.3373 7.37953 15.4343 7.29447 15.5148Z" fill="#787880"/>
</svg>
