<svg width="149" height="51" viewBox="0 0 149 51" fill="none" xmlns="http://www.w3.org/2000/svg">
<path d="M51.64 39V11H61.68L67.24 35.4H67.96V11H73.16V39H63.12L57.56 14.6H56.84V39H51.64ZM88.0369 39.56C86.0635 39.56 84.2902 39.16 82.7169 38.36C81.1435 37.56 79.9035 36.4 78.9969 34.88C78.0902 33.36 77.6369 31.5333 77.6369 29.4V28.76C77.6369 26.6267 78.0902 24.8 78.9969 23.28C79.9035 21.76 81.1435 20.6 82.7169 19.8C84.2902 19 86.0635 18.6 88.0369 18.6C90.0102 18.6 91.7835 19 93.3569 19.8C94.9302 20.6 96.1702 21.76 97.0769 23.28C97.9835 24.8 98.4369 26.6267 98.4369 28.76V29.4C98.4369 31.5333 97.9835 33.36 97.0769 34.88C96.1702 36.4 94.9302 37.56 93.3569 38.36C91.7835 39.16 90.0102 39.56 88.0369 39.56ZM88.0369 35.08C89.5835 35.08 90.8635 34.5867 91.8769 33.6C92.8902 32.5867 93.3969 31.1467 93.3969 29.28V28.88C93.3969 27.0133 92.8902 25.5867 91.8769 24.6C90.8902 23.5867 89.6102 23.08 88.0369 23.08C86.4902 23.08 85.2102 23.5867 84.1969 24.6C83.1835 25.5867 82.6769 27.0133 82.6769 28.88V29.28C82.6769 31.1467 83.1835 32.5867 84.1969 33.6C85.2102 34.5867 86.4902 35.08 88.0369 35.08ZM109.249 39.56C107.836 39.56 106.569 39.32 105.449 38.84C104.329 38.3333 103.436 37.6133 102.769 36.68C102.129 35.72 101.809 34.56 101.809 33.2C101.809 31.84 102.129 30.7067 102.769 29.8C103.436 28.8667 104.342 28.1733 105.489 27.72C106.662 27.24 107.996 27 109.489 27H114.929V25.88C114.929 24.9467 114.636 24.1867 114.049 23.6C113.462 22.9867 112.529 22.68 111.249 22.68C109.996 22.68 109.062 22.9733 108.449 23.56C107.836 24.12 107.436 24.8533 107.249 25.76L102.609 24.2C102.929 23.1867 103.436 22.2667 104.129 21.44C104.849 20.5867 105.796 19.9067 106.969 19.4C108.169 18.8667 109.622 18.6 111.329 18.6C113.942 18.6 116.009 19.2533 117.529 20.56C119.049 21.8667 119.809 23.76 119.809 26.24V33.64C119.809 34.44 120.182 34.84 120.929 34.84H122.529V39H119.169C118.182 39 117.369 38.76 116.729 38.28C116.089 37.8 115.769 37.16 115.769 36.36V36.32H115.009C114.902 36.64 114.662 37.0667 114.289 37.6C113.916 38.1067 113.329 38.56 112.529 38.96C111.729 39.36 110.636 39.56 109.249 39.56ZM110.129 35.48C111.542 35.48 112.689 35.0933 113.569 34.32C114.476 33.52 114.929 32.4667 114.929 31.16V30.76H109.849C108.916 30.76 108.182 30.96 107.649 31.36C107.116 31.76 106.849 32.32 106.849 33.04C106.849 33.76 107.129 34.3467 107.689 34.8C108.249 35.2533 109.062 35.48 110.129 35.48ZM126.214 39V11H131.254V21.6H131.974C132.187 21.1733 132.521 20.7467 132.974 20.32C133.427 19.8933 134.027 19.5467 134.774 19.28C135.547 18.9867 136.521 18.84 137.694 18.84C139.241 18.84 140.587 19.2 141.734 19.92C142.907 20.6133 143.814 21.5867 144.454 22.84C145.094 24.0667 145.414 25.5067 145.414 27.16V39H140.374V27.56C140.374 26.0667 140.001 24.9467 139.254 24.2C138.534 23.4533 137.494 23.08 136.134 23.08C134.587 23.08 133.387 23.6 132.534 24.64C131.681 25.6533 131.254 27.08 131.254 28.92V39H126.214Z" fill="#201F29"/>
<circle cx="6.00474" cy="32.9955" r="6.00474" fill="black"/>
<circle cx="32.7958" cy="17.2904" r="6.00474" fill="black"/>
<path d="M22.0724 13.0277C21.7749 11.996 20.8307 11.2856 19.7569 11.2856H12.4333C10.8324 11.2856 9.67645 12.818 10.1162 14.3574L16.6558 37.2519C16.9514 38.2865 17.897 38.9998 18.973 38.9998H26.3595C27.963 38.9998 29.1193 37.463 28.675 35.9222L22.0724 13.0277Z" fill="black"/>
</svg>
