<svg width="30" height="31" viewBox="0 0 30 31" fill="none" xmlns="http://www.w3.org/2000/svg">
<path d="M3.28547 8.78201L3.28555 8.78191L3.28173 8.77936C3.2828 8.78007 3.28169 8.77914 3.27863 8.77658C3.26813 8.76779 3.23467 8.73977 3.18696 8.69251C3.12708 8.63319 3.04766 8.54637 2.96849 8.43586C2.80972 8.21427 2.65505 7.90192 2.65505 7.52734C2.65505 6.9883 2.86918 6.47134 3.25034 6.09018C3.6315 5.70902 4.14846 5.49489 4.6875 5.49489C5.22654 5.49489 5.7435 5.70902 6.12466 6.09018C6.50582 6.47134 6.71995 6.9883 6.71995 7.52734V22.5273C6.71995 23.4801 7.09845 24.3939 7.77218 25.0677C8.44592 25.7414 9.3597 26.1199 10.3125 26.1199H23.4375C24.3903 26.1199 25.3041 25.7414 25.9778 25.0677C26.6516 24.3939 27.03 23.4801 27.03 22.5273C27.03 21.0119 25.8754 20.1029 25.7864 20.0329C25.7847 20.0316 25.7833 20.0305 25.7824 20.0298L25.7825 20.0297L25.7805 20.0283C25.6455 19.927 25.4813 19.8723 25.3125 19.8723H24.2175V7.52734C24.2175 6.57454 23.8391 5.66076 23.1653 4.98703C22.4916 4.3133 21.5778 3.9348 20.625 3.9348H4.6875C3.7347 3.9348 2.82092 4.3133 2.14718 4.98703C1.47345 5.66076 1.09495 6.57454 1.09495 7.52734C1.09495 9.04282 2.24965 9.95176 2.33857 10.0217C2.34032 10.0231 2.34166 10.0242 2.34257 10.0249L2.34255 10.0249L2.34422 10.0262C2.42591 10.088 2.51898 10.1331 2.6181 10.1589C2.71723 10.1848 2.82047 10.1908 2.92194 10.1768C3.02341 10.1627 3.12111 10.1288 3.20948 10.077C3.29784 10.0251 3.37513 9.95642 3.43693 9.87473C3.49874 9.79304 3.54384 9.69997 3.56968 9.60084C3.59552 9.50172 3.60158 9.39847 3.58751 9.297C3.57345 9.19554 3.53953 9.09783 3.48771 9.00947C3.43589 8.92111 3.36717 8.84382 3.28547 8.78201ZM11.6359 15.4133C11.4896 15.5596 11.4075 15.758 11.4075 15.9648C11.4075 16.1717 11.4896 16.3701 11.6359 16.5164C11.7822 16.6627 11.9806 16.7449 12.1875 16.7449H19.6875C19.8944 16.7449 20.0928 16.6627 20.2391 16.5164C20.3854 16.3701 20.4675 16.1717 20.4675 15.9648C20.4675 15.758 20.3854 15.5596 20.2391 15.4133C20.0928 15.267 19.8944 15.1848 19.6875 15.1848H12.1875C11.9806 15.1848 11.7822 15.267 11.6359 15.4133ZM12.1875 12.9949H19.6875C19.8944 12.9949 20.0928 12.9127 20.2391 12.7664C20.3854 12.6201 20.4675 12.4217 20.4675 12.2148C20.4675 12.008 20.3854 11.8096 20.2391 11.6633C20.0928 11.517 19.8944 11.4348 19.6875 11.4348H12.1875C11.9806 11.4348 11.7822 11.517 11.6359 11.6633C11.4896 11.8096 11.4075 12.008 11.4075 12.2148C11.4075 12.4217 11.4896 12.6201 11.6359 12.7664C11.7822 12.9127 11.9806 12.9949 12.1875 12.9949ZM7.6502 5.49489H20.625C21.164 5.49489 21.681 5.70902 22.0622 6.09018C22.4433 6.47134 22.6575 6.9883 22.6575 7.52734V19.8723H12.1875C12.0243 19.8723 11.8653 19.9234 11.7327 20.0186C11.6001 20.1137 11.5007 20.248 11.4485 20.4026C11.3962 20.5572 11.3938 20.7242 11.4415 20.8803C11.489 21.0359 11.584 21.1728 11.7132 21.2717C11.7216 21.2784 11.8766 21.4034 12.0311 21.6189C12.19 21.8405 12.345 22.1528 12.345 22.5273C12.345 23.0664 12.1308 23.5833 11.7497 23.9645C11.3685 24.3457 10.8515 24.5598 10.3125 24.5598C9.77346 24.5598 9.2565 24.3457 8.87534 23.9645C8.49418 23.5833 8.28005 23.0664 8.28005 22.5273V7.5275V7.52734H8.20312C8.20459 6.79823 7.97799 6.08775 7.55631 5.49489H7.6502ZM13.6953 21.4324H25.0059C25.2895 21.7284 25.4548 22.1184 25.47 22.5287C25.4696 23.0673 25.2555 23.5837 24.8747 23.9645C24.4935 24.3457 23.9765 24.5598 23.4375 24.5598H13.2751C13.6857 23.9629 13.9061 23.2541 13.905 22.5272C13.9045 22.152 13.8332 21.7806 13.6953 21.4324Z" fill="#787880" stroke="#787880" stroke-width="0.153846"/>
</svg>
