<svg width="31" height="31" viewBox="0 0 31 31" fill="none" xmlns="http://www.w3.org/2000/svg">
<path d="M9.25 9.60303H21.75M9.25 15.853H21.75M9.25 22.103H16.75M24.25 4.60303H6.75C6.08696 4.60303 5.45107 4.86642 4.98223 5.33526C4.51339 5.8041 4.25 6.43999 4.25 7.10303V24.603C4.25 25.2661 4.51339 25.902 4.98223 26.3708C5.45107 26.8396 6.08696 27.103 6.75 27.103H24.25C24.913 27.103 25.5489 26.8396 26.0178 26.3708C26.4866 25.902 26.75 25.2661 26.75 24.603V7.10303C26.75 6.43999 26.4866 5.8041 26.0178 5.33526C25.5489 4.86642 24.913 4.60303 24.25 4.60303Z" stroke="#201F29" stroke-width="1.875" stroke-linecap="round" stroke-linejoin="round"/>
</svg>
