<svg width="31" height="30" viewBox="0 0 31 30" fill="none" xmlns="http://www.w3.org/2000/svg">
<path d="M15.4998 4.375C14.8843 4.375 14.2747 4.49625 13.706 4.73181C13.1373 4.96738 12.6206 5.31266 12.1853 5.74794C11.75 6.18321 11.4047 6.69996 11.1692 7.26867C10.9336 7.83739 10.8123 8.44693 10.8123 9.0625C10.8123 9.67807 10.9336 10.2876 11.1692 10.8563C11.4047 11.425 11.75 11.9418 12.1853 12.3771C12.6206 12.8123 13.1373 13.1576 13.706 13.3932C14.2747 13.6288 14.8843 13.75 15.4998 13.75C16.743 13.75 17.9353 13.2561 18.8144 12.3771C19.6935 11.498 20.1873 10.3057 20.1873 9.0625C20.1873 7.8193 19.6935 6.62701 18.8144 5.74794C17.9353 4.86886 16.743 4.375 15.4998 4.375ZM9.24985 15.625C8.62533 15.6106 8.00423 15.7211 7.42305 15.9501C6.84187 16.1792 6.31232 16.522 5.86553 16.9586C5.41875 17.3952 5.06373 17.9167 4.82135 18.4924C4.57896 19.0682 4.4541 19.6866 4.4541 20.3113C4.4541 20.9359 4.57896 21.5543 4.82135 22.1301C5.06373 22.7058 5.41875 23.2273 5.86553 23.6639C6.31232 24.1005 6.84187 24.4433 7.42305 24.6724C8.00423 24.9014 8.62533 25.0119 9.24985 24.9975C10.474 24.9692 11.6385 24.4631 12.4942 23.5873C13.35 22.7116 13.8291 21.5357 13.8291 20.3113C13.8291 19.0868 13.35 17.9109 12.4942 17.0352C11.6385 16.1594 10.474 15.6533 9.24985 15.625ZM21.7498 15.625C21.1279 15.6148 20.5102 15.7286 19.9326 15.9595C19.3551 16.1905 18.8293 16.5341 18.3859 16.9704C17.9425 17.4066 17.5904 17.9267 17.35 18.5004C17.1096 19.0741 16.9858 19.6899 16.9858 20.3119C16.9858 20.9339 17.1096 21.5497 17.35 22.1234C17.5904 22.6971 17.9425 23.2172 18.3859 23.6534C18.8293 24.0896 19.3551 24.4332 19.9326 24.6642C20.5102 24.8952 21.1279 25.0089 21.7498 24.9988C22.9796 24.9787 24.1522 24.476 25.0148 23.5993C25.8774 22.7225 26.3608 21.5418 26.3608 20.3119C26.3608 19.0819 25.8774 17.9013 25.0148 17.0245C24.1522 16.1477 22.9796 15.6451 21.7498 15.625Z" fill="#201F29"/>
</svg>
