<svg width="31" height="31" viewBox="0 0 31 31" fill="none" xmlns="http://www.w3.org/2000/svg">
<path d="M19.2508 28.0549H11.7508C10.1008 28.0549 8.72579 27.9071 7.56329 27.5886C7.13829 27.4749 6.86329 27.0996 6.88829 26.7015C7.20079 23.301 10.9883 20.6282 15.5008 20.6282C20.0133 20.6282 23.7883 23.2896 24.1133 26.7015C24.1508 27.111 23.8758 27.4749 23.4383 27.5886C22.2758 27.9071 20.9008 28.0549 19.2508 28.0549ZM8.90079 26.1329C9.72579 26.2807 10.6633 26.349 11.7508 26.349H19.2508C20.3383 26.349 21.2758 26.2807 22.1008 26.1329C21.4383 23.9492 18.7008 22.3341 15.5008 22.3341C12.3008 22.3341 9.56329 23.9492 8.90079 26.1329Z" fill="#212121"/>
<path d="M19.25 4.45605H11.75C5.5 4.45605 3 6.73068 3 12.4172V19.2411C3 23.5402 4.425 25.8944 7.825 26.7701C8.1 23.8131 11.4375 21.4816 15.5 21.4816C19.5625 21.4816 22.9 23.8131 23.175 26.7701C26.575 25.8944 28 23.5402 28 19.2411V12.4172C28 6.73068 25.5 4.45605 19.25 4.45605ZM15.5 18.2971C13.025 18.2971 11.025 16.4661 11.025 14.2142C11.025 11.9623 13.025 10.1426 15.5 10.1426C17.975 10.1426 19.975 11.9623 19.975 14.2142C19.975 16.4661 17.975 18.2971 15.5 18.2971Z" stroke="#201F29" stroke-width="1.875" stroke-linecap="round" stroke-linejoin="round"/>
<path d="M15.4994 19.15C12.5119 19.15 10.0869 16.9323 10.0869 14.2141C10.0869 11.496 12.5119 9.28955 15.4994 9.28955C18.4869 9.28955 20.9119 11.496 20.9119 14.2141C20.9119 16.9323 18.4869 19.15 15.4994 19.15ZM15.4994 10.9955C13.5494 10.9955 11.9619 12.4399 11.9619 14.2141C11.9619 15.9997 13.5494 17.4441 15.4994 17.4441C17.4494 17.4441 19.0369 15.9997 19.0369 14.2141C19.0369 12.4399 17.4494 10.9955 15.4994 10.9955Z" fill="#212121"/>
</svg>
