<svg width="31" height="31" viewBox="0 0 31 31" fill="none" xmlns="http://www.w3.org/2000/svg">
<path d="M15.5 18.5374C17.4891 18.5374 19.3968 17.7472 20.8033 16.3407C22.2098 14.9341 23 13.0265 23 11.0374C23 9.04823 22.2098 7.14058 20.8033 5.73405C19.3968 4.32753 17.4891 3.53735 15.5 3.53735C13.5109 3.53735 11.6032 4.32753 10.1967 5.73405C8.79018 7.14058 8 9.04823 8 11.0374C8 13.0265 8.79018 14.9341 10.1967 16.3407C11.6032 17.7472 13.5109 18.5374 15.5 18.5374Z" stroke="#201F29" stroke-width="1.875" stroke-linecap="round" stroke-linejoin="round"/>
<path d="M20.5 27.2871C21.4849 27.2871 22.4602 27.0931 23.3701 26.7162C24.2801 26.3393 25.1069 25.7869 25.8033 25.0904C26.4997 24.394 27.0522 23.5672 27.4291 22.6572C27.806 21.7473 28 20.772 28 19.7871C28 18.8022 27.806 17.8269 27.4291 16.917C27.0522 16.007 26.4997 15.1802 25.8033 14.4838C25.1069 13.7874 24.2801 13.2349 23.3701 12.858C22.4602 12.4811 21.4849 12.2871 20.5 12.2871C18.5109 12.2871 16.6032 13.0773 15.1967 14.4838C13.7902 15.8903 13 17.798 13 19.7871C13 21.7762 13.7902 23.6839 15.1967 25.0904C16.6032 26.4969 18.5109 27.2871 20.5 27.2871Z" stroke="#201F29" stroke-width="1.875" stroke-linecap="round" stroke-linejoin="round"/>
<path d="M10.5 27.2871C11.4849 27.2871 12.4602 27.0931 13.3701 26.7162C14.2801 26.3393 15.1069 25.7869 15.8033 25.0904C16.4997 24.394 17.0522 23.5672 17.4291 22.6572C17.806 21.7473 18 20.772 18 19.7871C18 18.8022 17.806 17.8269 17.4291 16.917C17.0522 16.007 16.4997 15.1802 15.8033 14.4838C15.1069 13.7874 14.2801 13.2349 13.3701 12.858C12.4602 12.4811 11.4849 12.2871 10.5 12.2871C8.51088 12.2871 6.60322 13.0773 5.1967 14.4838C3.79018 15.8903 3 17.798 3 19.7871C3 21.7762 3.79018 23.6839 5.1967 25.0904C6.60322 26.4969 8.51088 27.2871 10.5 27.2871Z" stroke="#201F29" stroke-width="1.875" stroke-linecap="round" stroke-linejoin="round"/>
</svg>
