<svg width="59" height="56" viewBox="0 0 59 56" fill="none" xmlns="http://www.w3.org/2000/svg">
<g clip-path="url(#clip0_846_26192)">
<path d="M36.5407 21.7944C32.078 21.7944 27.6154 21.8012 23.1527 21.7841C22.6512 21.7824 22.4858 21.8832 22.4875 22.4074C22.5069 31.0941 22.5069 39.7826 22.4875 48.4693C22.4875 49.0038 22.6688 49.0891 23.158 49.0857C26.4768 49.0669 29.7974 49.0891 33.1163 49.0635C33.6723 49.0584 33.8078 49.2121 33.7937 49.7363C33.7533 51.1622 33.7656 52.5898 33.7902 54.0157C33.7973 54.4135 33.6758 54.516 33.2729 54.5143C28.7662 54.5006 24.2596 54.516 19.7529 54.5006C18.0301 54.4938 16.9022 53.3599 16.8986 51.654C16.8881 47.3747 16.8863 43.0937 16.9074 38.8143C16.9092 38.3003 16.7948 38.121 16.2317 38.1364C14.7377 38.1757 13.2419 38.133 11.7479 38.1603C11.3291 38.1671 11.2411 38.0476 11.2464 37.6617C11.271 36.1709 11.2728 34.6802 11.2464 33.1911C11.2394 32.7796 11.3749 32.7044 11.7638 32.7096C13.2578 32.7318 14.7535 32.6976 16.2475 32.7301C16.7561 32.7403 16.9127 32.6208 16.9092 32.1034C16.8863 27.9094 16.9514 23.7138 16.8705 19.5198C16.8335 17.5936 18.1498 16.2992 20.1647 16.3385C24.4056 16.4188 28.6501 16.3624 32.8928 16.3624C33.4852 16.3624 33.7814 16.0647 33.7814 15.4693C33.7814 14.1066 33.7973 12.744 33.7709 11.3813C33.7638 10.9868 33.8712 10.8826 34.2777 10.8895C35.8157 10.9151 37.3554 10.9151 38.8934 10.8895C39.307 10.8826 39.4037 10.9971 39.3967 11.3847C39.3721 12.8106 39.4125 14.2381 39.3738 15.664C39.358 16.207 39.4759 16.3812 40.083 16.3778C44.4137 16.3488 48.7444 16.3607 53.075 16.3624C55.1973 16.3624 56.2725 17.4024 56.2742 19.4584C56.276 22.7797 56.2654 26.101 56.2865 29.4224C56.2901 29.8732 56.1686 29.9893 55.7076 29.9808C54.2136 29.95 52.7178 29.9483 51.2238 29.9808C50.7434 29.991 50.6537 29.8407 50.6589 29.4087C50.6818 27.0676 50.6554 24.7247 50.6818 22.3818C50.6871 21.9054 50.5622 21.7756 50.0642 21.7773C45.5575 21.7961 41.0508 21.7893 36.5442 21.7893L36.5407 21.7944Z" fill="#FFE177"/>
<path d="M45.7528 46.1078C43.664 48.0631 41.6315 49.9654 39.4794 51.9804V30.0288C45.9393 33.678 52.4028 37.3272 59 41.0533C56.1598 41.8439 53.4428 42.5987 50.717 43.3569C50.6994 43.6335 50.8894 43.8008 51.0003 43.9887C52.7582 46.9531 54.5162 49.9176 56.3006 52.8666C56.5469 53.2748 56.5628 53.4677 56.0912 53.7153C54.7995 54.3933 53.5272 55.1053 52.2778 55.8516C51.8221 56.1231 51.6496 56.0121 51.4103 55.604C49.6611 52.6344 47.8873 49.6785 46.1206 46.7192C46.0115 46.5365 45.9006 46.3537 45.7528 46.1078Z" fill="#FFE177"/>
<path d="M14.0708 5.43867C13.2807 5.43867 12.4923 5.42672 11.7022 5.4455C11.3819 5.45233 11.2411 5.39939 11.2464 5.03908C11.2675 3.48856 11.264 1.93803 11.2464 0.387501C11.2429 0.0715897 11.345 -0.00183833 11.6564 0.00157693C13.256 0.015238 14.8574 0.0169456 16.4587 0.00157693C16.8071 -0.00183833 16.9057 0.109158 16.9022 0.440438C16.8863 1.96877 16.8846 3.4988 16.9022 5.02713C16.9057 5.38402 16.7614 5.45062 16.4376 5.44379C15.6492 5.42672 14.8591 5.43867 14.069 5.43867H14.0708Z" fill="#FFE177"/>
<path d="M25.3717 5.43896C24.5604 5.43896 23.7492 5.4253 22.938 5.4458C22.5896 5.45433 22.491 5.33992 22.4945 5.00864C22.5104 3.48031 22.5121 1.95028 22.4945 0.421949C22.491 0.0667624 22.6353 0.00187248 22.9573 0.00358011C24.5358 0.0155335 26.1143 0.0155335 27.6928 0.00358011C28.0113 0.000164855 28.1556 0.0479785 28.1503 0.408288C28.1292 1.95882 28.1327 3.50934 28.1503 5.05987C28.1538 5.37407 28.0553 5.45604 27.742 5.4475C26.9537 5.42701 26.1636 5.44067 25.3734 5.44067L25.3717 5.43896Z" fill="#FFE177"/>
<path d="M2.85601 16.3644C2.04478 16.3644 1.23355 16.3524 0.422314 16.3695C0.110843 16.3763 -1.95601e-05 16.2858 0.00174016 15.975C0.0140582 14.404 0.0140582 12.8313 0.00174016 11.2603C-1.95601e-05 10.9905 0.0721291 10.8931 0.366003 10.8948C1.98847 10.9068 3.61093 10.9102 5.2334 10.8931C5.5783 10.8897 5.6223 11.0178 5.62054 11.3013C5.60822 12.8296 5.59942 14.3596 5.62581 15.8879C5.63285 16.3012 5.47976 16.3849 5.09262 16.3712C4.34826 16.3439 3.60213 16.3627 2.85601 16.3627V16.3644Z" fill="#FFE177"/>
<path d="M2.75397 27.2573C1.98673 27.2573 1.2195 27.2437 0.452256 27.2641C0.128467 27.2727 -0.00351204 27.2078 7.40265e-06 26.8543C0.0211241 25.326 0.0176046 23.7959 0.00176713 22.2676C-0.00175232 21.9244 0.0739158 21.7827 0.469854 21.7878C2.02545 21.81 3.5828 21.8066 5.14016 21.7878C5.51322 21.7827 5.6276 21.8885 5.62408 22.2522C5.60473 23.7806 5.60649 25.3106 5.62408 26.8389C5.6276 27.1702 5.5361 27.2761 5.18767 27.2658C4.37644 27.2419 3.56521 27.2573 2.75397 27.2573Z" fill="#FFE177"/>
<path d="M2.81206 0.00872779C3.60218 0.00872779 4.3923 0.0258041 5.18241 0.00189727C5.52908 -0.00834851 5.62938 0.090694 5.6241 0.428805C5.6065 1.95884 5.6065 3.48888 5.6241 5.01891C5.62762 5.35361 5.5326 5.45094 5.18417 5.44753C3.60394 5.43045 2.02371 5.43045 0.445236 5.44753C0.0985708 5.45094 -0.00349313 5.35702 2.63178e-05 5.02062C0.0176236 3.49058 0.0176236 1.96055 2.63178e-05 0.430512C-0.00173341 0.0941092 0.0932916 -0.0100561 0.441717 0.00018964C1.23183 0.0258041 2.02195 0.00872779 2.81206 0.00872779Z" fill="#FFE177"/>
<path d="M36.5864 5.43865C35.7963 5.43865 35.0062 5.42328 34.2161 5.44548C33.8747 5.45572 33.7691 5.35668 33.7726 5.02028C33.7902 3.49024 33.7902 1.96021 33.7726 0.430171C33.7691 0.0988904 33.8641 -0.00185976 34.2108 0.0015555C35.791 0.0186318 37.3712 0.0186318 38.9497 0.0015555C39.2911 -0.00185976 39.3967 0.0903522 39.3932 0.426755C39.3756 1.95679 39.3756 3.48683 39.3932 5.01686C39.3967 5.34814 39.3034 5.45572 38.9532 5.44548C38.1649 5.42157 37.373 5.43865 36.5829 5.43865H36.5864Z" fill="#FFE177"/>
<path d="M5.61531 35.4998C5.61531 36.2444 5.59771 36.9889 5.62235 37.7317C5.63466 38.0698 5.52556 38.162 5.18066 38.1586C3.60042 38.1415 2.02019 38.1415 0.44172 38.1586C0.0932948 38.162 -0.00348998 38.0664 0.00178919 37.73C0.0193864 36.2 0.0193864 34.6699 0.00178919 33.1399C-0.00173025 32.8035 0.098574 32.7096 0.44348 32.713C2.02371 32.7301 3.60394 32.7301 5.18241 32.713C5.53084 32.7096 5.6329 32.8052 5.62235 33.1416C5.59771 33.9271 5.61531 34.7143 5.61531 35.4998Z" fill="#FFE177"/>
</g>
<defs>
<clipPath id="clip0_846_26192">
<rect width="59" height="56" fill="white"/>
</clipPath>
</defs>
</svg>
